<svg id="er9LY0WoaKP1" xmlns="http://www.w3.org/2000/svg" xmlns:xlink="http://www.w3.org/1999/xlink" viewBox="0 0 300 100" shape-rendering="geometricPrecision" text-rendering="geometricPrecision">
<style><![CDATA[
#er9LY0WoaKP3_to {animation: er9LY0WoaKP3_to__to 1400ms linear 1 normal forwards}@keyframes er9LY0WoaKP3_to__to { 0% {transform: translate(28.888601px,65.08955px)} 7.142857% {transform: translate(28.888601px,65.08955px)} 62.857143% {transform: translate(14.57426px,46.611866px)} 71.428571% {transform: translate(24.257666px,45.68577px)} 93.571429% {transform: translate(109.120739px,45.685801px)} 100% {transform: translate(109.120739px,45.685801px)}} #er9LY0WoaKP3_tr {animation: er9LY0WoaKP3_tr__tr 1400ms linear 1 normal forwards}@keyframes er9LY0WoaKP3_tr__tr { 0% {transform: rotate(6.046851deg)} 7.142857% {transform: rotate(6.046851deg)} 71.428571% {transform: rotate(42.369885deg)} 100% {transform: rotate(42.369885deg)}} #er9LY0WoaKP3 {animation: er9LY0WoaKP3_c_o 1400ms linear 1 normal forwards}@keyframes er9LY0WoaKP3_c_o { 0% {opacity: 1} 0.714286% {opacity: 0} 74.285714% {opacity: 0} 79.285714% {opacity: 1} 100% {opacity: 0}} #er9LY0WoaKP4_to {animation: er9LY0WoaKP4_to__to 1400ms linear 1 normal forwards}@keyframes er9LY0WoaKP4_to__to { 0% {transform: translate(22.750778px,69.403584px)} 7.142857% {transform: translate(22.750778px,69.403584px)} 14.285714% {transform: translate(11.353562px,45.835155px)} 64.285714% {transform: translate(14.000245px,45.835155px)} 67.142857% {transform: translate(12.609922px,45.835155px);animation-timing-function: cubic-bezier(0.47,0,0.745,0.715)} 93.571429% {transform: translate(91.05757px,45.835163px)} 100% {transform: translate(91.05757px,45.835163px)}} #er9LY0WoaKP4_tr {animation: er9LY0WoaKP4_tr__tr 1400ms linear 1 normal forwards}@keyframes er9LY0WoaKP4_tr__tr { 0% {transform: rotate(9.650465deg)} 7.142857% {transform: rotate(9.650465deg)} 64.285714% {transform: rotate(40deg)} 100% {transform: rotate(40deg)}} #er9LY0WoaKP4 {animation: er9LY0WoaKP4_c_o 1400ms linear 1 normal forwards}@keyframes er9LY0WoaKP4_c_o { 0% {opacity: 1} 0.714286% {opacity: 0} 74.285714% {opacity: 0} 79.285714% {opacity: 1} 94.285714% {opacity: 0} 100% {opacity: 0}} #er9LY0WoaKP5_to {animation: er9LY0WoaKP5_to__to 1400ms linear 1 normal forwards}@keyframes er9LY0WoaKP5_to__to { 0% {transform: translate(65.91197px,32.083249px)} 7.142857% {transform: translate(65.91197px,32.083249px)} 50% {transform: translate(50.000263px,42.78906px)} 57.142857% {transform: translate(42.912205px,42.78906px);animation-timing-function: cubic-bezier(0.535,-0.29,1,1)} 100% {transform: translate(489.86941px,42.157892px)}} #er9LY0WoaKP5_tr {animation: er9LY0WoaKP5_tr__tr 1400ms linear 1 normal forwards}@keyframes er9LY0WoaKP5_tr__tr { 0% {transform: rotate(0deg)} 7.142857% {transform: rotate(0deg)} 50% {transform: rotate(40deg)} 100% {transform: rotate(40deg)}}
]]></style>
<g><g id="er9LY0WoaKP3_to" transform="translate(28.888601,65.08955)"><g id="er9LY0WoaKP3_tr" transform="rotate(6.046851)"><path id="er9LY0WoaKP3" d="M36.023,59.21l3.4017,3.9169c-3.1665,3.7114-6.4161,8.1064-7.6899,14.1537L27.081,75.9638c1.5705-7.4396,5.3956-12.5979,8.942-16.7538ZM18.3525,61.7682l1.1363,5.3972c6.3509-1.8033,10.6863-6.0808,14.4353-10.3626l-3.3944-3.9043c-3.1701,3.6317-6.9734,7.3977-12.1772,8.8697Z" transform="scale(0.8,0.66) translate(-28.888601,-65.08955)"/></g></g><g id="er9LY0WoaKP4_to" transform="translate(22.750778,69.403584)"><g id="er9LY0WoaKP4_tr" transform="rotate(9.650465)"><path id="er9LY0WoaKP4" d="M30.0505,88.8072c-2.5875,0-4.8963-1.1701-6.8287-3.4808-5.2762,2.1598-10.2918-.1845-12.9408-4.5459-2.08078-3.4263-2.54398-7.7709-1.27741-11.9311C7.00602,66.61,6,63.9596,6,60.9485c0-6.5505,4.1978-11.7549,11.7249-10.8449l.7056,4.6844c-2.4028.26-4.6212.4068-6.0578,2.0717-2.41736,2.8014-1.69,8.6516,2.848,10.2032-3.0109,3.5059-2.7177,8.5426-.4596,11.3062c2.3667,2.8936,6.8865,3.3508,10.0059-.2474c1.3933,5.4727,6.5066,5.9634,8.8046,3.3004c1.4185-1.6439,1.5596-4.1727,1.7804-6.9154l4.0711.9604c.7238,8.2993-3.6513,13.3401-9.3726,13.3401Z" transform="scale(0.97,0.95) translate(-22.750778,-69.403584)"/></g></g><g id="er9LY0WoaKP5_to" transform="translate(65.91197,32.083249)"><g id="er9LY0WoaKP5_tr" transform="rotate(0)"><path d="M60.7158,18.6953C74.4565,12.2794,88.013,5.93137,90.8407,4.58007c2.9338-1.38562,5.325-2.42892,5.5496-2.4134.2643.01716.4094.13725.4359.34232.0265.15441-.8984,2.30964-2.0612,4.79085C87.3398,23.1266,73.9284,51.768,71.96,56.0114c-1.2947,2.7721-2.5237,5.2533-2.735,5.5098-.3041.3759-.5155.4788-.9514.4788-.5023,0-.9117-.3252-4.4265-3.4216-2.1275-1.8815-3.8978-3.4215-3.9243-3.4215c0-.0171-.0088-.0244-.0259-.0228L50.8717,47.201L68.1146,30.5359c9.487-9.1535,17.2429-16.6821,17.2429-16.7336c0-.0343-.436.2394-.9515.616-6.5142,4.5686-39.7047,27.0507-39.863,26.9992-.3698-.1365-8.7868-7.6307-9.1565-8.1781-.277-.3767-.3697-.6847-.3697-1.1806c0-.1857-.0285-.3325-.0168-.476.0778-.9537,1.9309-1.7626,25.7158-12.8875ZM50.5,48L59,56c-.3223.2737-.4562.2309-.9592.6806-.6034.5394-1.31,1.1712-2.0556,1.8129-2.5369,2.1903-3.9773,3.3366-4.2019,3.3366-.1848,0-.4492-.1544-.5943-.3595-.2378-.3423-.2511-.7525-.2776-7.3227L50.5,48Z" transform="translate(-65.91197,-32.083249)" clip-rule="evenodd" fill-rule="evenodd"/></g></g></g></svg>
